<svg width="19" height="18" viewBox="0 0 19 18" fill="none" xmlns="http://www.w3.org/2000/svg">
<path d="M17.5 5.02885H16V1.99998H1.99997V16H16V12.9711H17.5V17.5H0.5V0.5H17.5V5.02885ZM8.5 13.5V4.5H18.5V13.5H8.5ZM13 10.5C13.4166 10.5 13.7708 10.3541 14.0625 10.0625C14.3541 9.77081 14.5 9.41664 14.5 8.99998C14.5 8.58331 14.3541 8.22914 14.0625 7.93748C13.7708 7.64581 13.4166 7.49998 13 7.49998C12.5833 7.49998 12.2291 7.64581 11.9375 7.93748C11.6458 8.22914 11.5 8.58331 11.5 8.99998C11.5 9.41664 11.6458 9.77081 11.9375 10.0625C12.2291 10.3541 12.5833 10.5 13 10.5ZM17 12V5.99998H9.99998V12H17Z" fill="#1C1B1F"/>
</svg>
