<svg width="10" height="19" viewBox="0 0 10 19" fill="none" xmlns="http://www.w3.org/2000/svg">
<path d="M4.94189 18.584C3.58151 18.584 2.42814 18.1108 1.48179 17.1645C0.535433 16.2181 0.0622559 15.0647 0.0622559 13.7043V4.38867C0.0622559 3.41274 0.409745 2.57729 1.10472 1.88231C1.7997 1.18733 2.63516 0.839844 3.61108 0.839844C4.58701 0.839844 5.42247 1.18733 6.11744 1.88231C6.81242 2.57729 7.15991 3.41274 7.15991 4.38867V12.8171C7.15991 13.4382 6.9455 13.9631 6.51669 14.3919C6.08787 14.8207 5.56294 15.0352 4.94189 15.0352C4.32085 15.0352 3.79592 14.8207 3.3671 14.3919C2.93829 13.9631 2.72388 13.4382 2.72388 12.8171V4.38867H4.05469V12.8171C4.05469 13.0685 4.13971 13.2792 4.30976 13.4493C4.47981 13.6193 4.69052 13.7043 4.94189 13.7043C5.19327 13.7043 5.40398 13.6193 5.57403 13.4493C5.74408 13.2792 5.8291 13.0685 5.8291 12.8171V4.38867C5.8291 3.76763 5.61469 3.2427 5.18588 2.81388C4.75706 2.38506 4.23213 2.17065 3.61108 2.17065C2.99004 2.17065 2.46511 2.38506 2.03629 2.81388C1.60747 3.2427 1.39307 3.76763 1.39307 4.38867V13.7043C1.39307 14.6803 1.74056 15.5157 2.43553 16.2107C3.13051 16.9057 3.96597 17.2532 4.94189 17.2532C5.91782 17.2532 6.75328 16.9057 7.44825 16.2107C8.14323 15.5157 8.49072 14.6803 8.49072 13.7043V4.38867H9.82153V13.7043C9.82153 15.0647 9.34836 16.2181 8.402 17.1645C7.45565 18.1108 6.30228 18.584 4.94189 18.584Z" fill="#616068"/>
</svg>
