<svg width="20" height="15" viewBox="0 0 20 15" fill="none" xmlns="http://www.w3.org/2000/svg">
<path d="M9.15047 15L6.50464 12.625C5.50464 11.7222 4.647 10.9167 3.93172 10.2083C3.21644 9.5 2.62617 8.83333 2.16089 8.20833C1.69561 7.58333 1.35533 6.97917 1.14006 6.39583C0.924778 5.8125 0.817139 5.20139 0.817139 4.5625C0.817139 3.25694 1.25464 2.17014 2.12964 1.30208C3.00464 0.434028 4.09492 0 5.40047 0C6.12269 0 6.81019 0.152778 7.46297 0.458333C8.11575 0.763889 8.67825 1.19444 9.15047 1.75C9.62269 1.19444 10.1852 0.763889 10.838 0.458333C11.4908 0.152778 12.1783 0 12.9005 0C14.0255 0 14.9699 0.315972 15.7338 0.947917C16.4977 1.57986 17.0185 2.375 17.2963 3.33333H15.5255C15.2755 2.77778 14.9074 2.36111 14.4213 2.08333C13.9352 1.80556 13.4283 1.66667 12.9005 1.66667C12.1921 1.66667 11.581 1.85764 11.0671 2.23958C10.5533 2.62153 10.0741 3.125 9.62964 3.75H8.67131C8.24075 3.125 7.75117 2.62153 7.20256 2.23958C6.65394 1.85764 6.05325 1.66667 5.40047 1.66667C4.60881 1.66667 3.92478 1.94097 3.34839 2.48958C2.772 3.03819 2.48381 3.72917 2.48381 4.5625C2.48381 5.02083 2.58103 5.48611 2.77547 5.95833C2.96992 6.43056 3.31714 6.97569 3.81714 7.59375C4.31714 8.21181 4.99769 8.93403 5.85881 9.76042C6.71992 10.5868 7.81714 11.5833 9.15047 12.75C9.51158 12.4306 9.93519 12.0625 10.4213 11.6458C10.9074 11.2292 11.2963 10.8819 11.588 10.6042L12.7755 11.7917C12.4699 12.0694 12.081 12.4132 11.6088 12.8229C11.1366 13.2326 10.7199 13.5972 10.3588 13.9167L9.15047 15ZM14.9838 11.6667V9.16667H12.4838V7.5H14.9838V5H16.6505V7.5H19.1505V9.16667H16.6505V11.6667H14.9838Z" fill="black"/>
</svg>
