<svg width="15" height="17" viewBox="0 0 15 17" fill="none" xmlns="http://www.w3.org/2000/svg">
<path d="M0.75 16.3242V11.2201C0.75 10.1923 1.11562 9.32791 1.84687 8.62697C2.57812 7.92602 3.4625 7.57555 4.5 7.57555H5.25V1.82422C5.25 1.41172 5.39713 1.05859 5.6914 0.764844C5.98565 0.471094 6.33938 0.324219 6.75258 0.324219H8.25519C8.6684 0.324219 9.02083 0.471094 9.3125 0.764844C9.60417 1.05859 9.75 1.41172 9.75 1.82422V7.57555H10.5C11.5375 7.57555 12.4219 7.92602 13.1531 8.62697C13.8844 9.32791 14.25 10.1923 14.25 11.2201V16.3242H0.75ZM2.25 14.8242H3.75V12.2826C3.75 12.0701 3.82145 11.8919 3.96435 11.7482C4.10727 11.6044 4.28435 11.5326 4.4956 11.5326C4.70687 11.5326 4.88542 11.6044 5.03125 11.7482C5.17708 11.8919 5.25 12.0701 5.25 12.2826V14.8242H6.75V12.2826C6.75 12.0701 6.82145 11.8919 6.96435 11.7482C7.10727 11.6044 7.28435 11.5326 7.4956 11.5326C7.70687 11.5326 7.88542 11.6044 8.03125 11.7482C8.17708 11.8919 8.25 12.0701 8.25 12.2826V14.8242H9.75V12.2826C9.75 12.0701 9.82145 11.8919 9.96435 11.7482C10.1073 11.6044 10.2844 11.5326 10.4956 11.5326C10.7069 11.5326 10.8854 11.6044 11.0312 11.7482C11.1771 11.8919 11.25 12.0701 11.25 12.2826V14.8242H12.75V11.2201C12.75 10.6089 12.5312 10.0985 12.0938 9.6888C11.6562 9.27908 11.125 9.07422 10.5 9.07422H4.5C3.875 9.07422 3.34375 9.27908 2.90625 9.6888C2.46875 10.0985 2.25 10.6089 2.25 11.2201V14.8242ZM8.25 7.57422V1.82422H6.75V7.57422H8.25Z" fill="#616068"/>
</svg>
