<svg width="34" height="34" viewBox="0 0 34 34" fill="none" xmlns="http://www.w3.org/2000/svg">
<mask id="mask0_2729_5659" style="mask-type:alpha" maskUnits="userSpaceOnUse" x="0" y="0" width="34" height="34">
<rect x="12.4961" y="0.887207" width="24" height="24" transform="rotate(30 12.4961 0.887207)" fill="#D9D9D9"/>
</mask>
<g mask="url(#mask0_2729_5659)">
<path d="M14.3888 21.6094C14.6341 21.7511 14.8877 21.7868 15.1496 21.7167C15.4114 21.6465 15.6131 21.4888 15.7548 21.2434C15.8965 20.998 15.9322 20.7444 15.8621 20.4826C15.7919 20.2208 15.6341 20.019 15.3888 19.8774C15.1434 19.7357 14.8898 19.6999 14.628 19.7701C14.3662 19.8402 14.1644 19.998 14.0227 20.2434C13.8811 20.4888 13.8453 20.7424 13.9155 21.0042C13.9856 21.266 14.1434 21.4677 14.3888 21.6094ZM16.3888 18.1453C16.6341 18.287 16.8877 18.3227 17.1496 18.2526C17.4114 18.1824 17.6131 18.0247 17.7548 17.7793C17.8965 17.5339 17.9322 17.2803 17.8621 17.0185C17.7919 16.7567 17.6341 16.5549 17.3888 16.4133C17.1434 16.2716 16.8898 16.2358 16.628 16.306C16.3662 16.3761 16.1644 16.5339 16.0227 16.7793C15.8811 17.0247 15.8453 17.2782 15.9155 17.5401C15.9856 17.8019 16.1434 18.0036 16.3888 18.1453ZM18.3888 14.6812C18.6341 14.8229 18.8877 14.8586 19.1496 14.7885C19.4114 14.7183 19.6131 14.5605 19.7548 14.3152C19.8965 14.0698 19.9322 13.8162 19.8621 13.5544C19.7919 13.2926 19.6341 13.0908 19.3888 12.9492C19.1434 12.8075 18.8898 12.7717 18.628 12.8419C18.3662 12.912 18.1644 13.0698 18.0227 13.3152C17.8811 13.5605 17.8453 13.8141 17.9155 14.076C17.9856 14.3378 18.1434 14.5395 18.3888 14.6812ZM19.817 28.2075L5.96057 20.2075C5.48425 19.9325 5.17442 19.5275 5.03106 18.9924C4.8877 18.4574 4.95352 17.9517 5.22852 17.4754L7.22852 14.0113C7.70483 14.2863 8.2105 14.3521 8.74553 14.2088C9.28055 14.0654 9.68557 13.7556 9.96057 13.2793C10.2356 12.803 10.3014 12.2973 10.158 11.7623C10.0147 11.2272 9.70483 10.8222 9.22852 10.5472L11.2285 7.08312C11.5035 6.60681 11.9085 6.29697 12.4436 6.15361C12.9786 6.01025 13.4843 6.07607 13.9606 6.35107L27.817 14.3511C28.2933 14.6261 28.6031 15.0311 28.7465 15.5661C28.8898 16.1011 28.824 16.6068 28.549 17.0831L26.549 20.5472C26.0727 20.2722 25.567 20.2064 25.032 20.3498C24.497 20.4931 24.092 20.803 23.817 21.2793C23.542 21.7556 23.4762 22.2613 23.6195 22.7963C23.7629 23.3313 24.0727 23.7363 24.549 24.0113L22.549 27.4754C22.274 27.9517 21.869 28.2616 21.334 28.4049C20.799 28.5483 20.2933 28.4825 19.817 28.2075ZM20.817 26.4754L22.092 24.2671C21.7413 23.6412 21.5628 22.9753 21.5567 22.2693C21.5505 21.5633 21.7266 20.8999 22.0849 20.2793C22.4433 19.6586 22.9297 19.1745 23.5442 18.8268C24.1587 18.4791 24.8246 18.3007 25.542 18.2915L26.817 16.0831L12.9606 8.08312L11.6856 10.2915C12.0363 10.9174 12.2147 11.5833 12.2209 12.2893C12.227 12.9953 12.051 13.6586 11.6926 14.2793C11.3343 14.8999 10.8479 15.3841 10.2334 15.7318C9.61889 16.0794 8.95295 16.2579 8.23557 16.2671L6.96057 18.4754L20.817 26.4754Z" fill="#616068"/>
</g>
</svg>
