<svg width="25" height="24" viewBox="0 0 25 24" fill="none" xmlns="http://www.w3.org/2000/svg">
<path d="M14.9288 16.3296C15.1742 16.188 15.3319 15.9862 15.4021 15.7244C15.4723 15.4626 15.4365 15.209 15.2948 14.9636C15.1532 14.7182 14.9514 14.5605 14.6896 14.4903C14.4278 14.4201 14.1742 14.4559 13.9288 14.5976C13.6834 14.7392 13.5257 14.941 13.4555 15.2028C13.3854 15.4646 13.4211 15.7182 13.5628 15.9636C13.7045 16.209 13.9062 16.3667 14.168 16.4369C14.4298 16.507 14.6834 16.4713 14.9288 16.3296ZM12.9288 12.8655C13.1742 12.7239 13.3319 12.5221 13.4021 12.2603C13.4723 11.9985 13.4365 11.7449 13.2948 11.4995C13.1532 11.2541 12.9514 11.0964 12.6896 11.0262C12.4278 10.956 12.1742 10.9918 11.9288 11.1335C11.6834 11.2751 11.5257 11.4769 11.4555 11.7387C11.3854 12.0005 11.4211 12.2541 11.5628 12.4995C11.7045 12.7449 11.9062 12.9026 12.168 12.9728C12.4298 13.0429 12.6834 13.0072 12.9288 12.8655ZM10.9288 9.40142C11.1742 9.25975 11.3319 9.058 11.4021 8.79618C11.4723 8.53436 11.4365 8.28076 11.2948 8.03539C11.1532 7.79002 10.9514 7.63225 10.6896 7.5621C10.4278 7.49194 10.1742 7.5277 9.92881 7.66937C9.68343 7.81103 9.52567 8.01278 9.45552 8.2746C9.38536 8.53642 9.42112 8.79002 9.56278 9.03539C9.70445 9.28076 9.90619 9.43853 10.168 9.50868C10.4298 9.57884 10.6834 9.54308 10.9288 9.40142ZM23.357 14.9277L9.50061 22.9277C9.02429 23.2027 8.51862 23.2685 7.98359 23.1252C7.44857 22.9818 7.04355 22.672 6.76855 22.1956L4.76855 18.7315C5.24487 18.4565 5.55471 18.0515 5.69807 17.5165C5.84143 16.9815 5.77561 16.4758 5.50061 15.9995C5.22561 15.5232 4.82059 15.2133 4.28557 15.07C3.75054 14.9266 3.24487 14.9924 2.76855 15.2674L0.768555 11.8033C0.493555 11.327 0.427735 10.8214 0.571095 10.2863C0.714455 9.7513 1.02429 9.34629 1.50061 9.07129L15.357 1.07129C15.8333 0.796289 16.339 0.730469 16.874 0.873829C17.409 1.01719 17.8141 1.32703 18.0891 1.80334L20.0891 5.26744C19.6127 5.54244 19.3029 5.94745 19.1596 6.48248C19.0162 7.01751 19.082 7.52318 19.357 7.99949C19.632 8.47581 20.037 8.78564 20.5721 8.929C21.1071 9.07236 21.6127 9.00654 22.0891 8.73154L24.0891 12.1956C24.3641 12.672 24.4299 13.1776 24.2865 13.7127C24.1432 14.2477 23.8333 14.6527 23.357 14.9277Z" fill="#772077"/>
</svg>
