<svg width="16" height="17" viewBox="0 0 16 17" fill="none" xmlns="http://www.w3.org/2000/svg">
<path d="M3.3077 16.8787C2.80898 16.8787 2.38302 16.7021 2.02982 16.3489C1.67661 15.9957 1.5 15.5697 1.5 15.071V2.37872H0.5V0.87874H4.99997V-0.00585938H11V0.87874H15.5V2.37872H14.5V15.071C14.5 15.5761 14.325 16.0037 13.975 16.3537C13.625 16.7037 13.1974 16.8787 12.6922 16.8787H3.3077ZM13 2.37872H2.99997V15.071C2.99997 15.1607 3.02883 15.2345 3.08652 15.2922C3.14422 15.3499 3.21795 15.3787 3.3077 15.3787H12.6922C12.7692 15.3787 12.8397 15.3467 12.9038 15.2826C12.9679 15.2185 13 15.1479 13 15.071V2.37872ZM5.40385 13.3787H6.90382V4.37872H5.40385V13.3787ZM9.09613 13.3787H10.5961V4.37872H9.09613V13.3787Z" fill="#1C1B1F"/>
</svg>
