<svg width="18" height="20" viewBox="0 0 18 20" fill="none" xmlns="http://www.w3.org/2000/svg">
<path d="M-0.00585938 19.8785V17.1767H18.0066V19.8785H-0.00585938ZM3.59663 13.0459H4.71027L12.1855 5.58461L11.6191 5.00958L11.058 4.4571L3.59663 11.9323V13.0459ZM2.24572 14.3968V11.3573L12.3413 1.27552C12.4718 1.14505 12.6199 1.04633 12.7856 0.97937C12.9513 0.912394 13.1237 0.878906 13.3027 0.878906C13.4818 0.878906 13.6553 0.912394 13.8232 0.97937C13.9911 1.04633 14.1449 1.14967 14.2846 1.28939L15.367 2.38571C15.5067 2.51618 15.6078 2.6656 15.6701 2.83395C15.7325 3.00232 15.7636 3.1763 15.7636 3.35589C15.7636 3.52426 15.732 3.69174 15.6688 3.85834C15.6056 4.02494 15.505 4.17718 15.367 4.31507L5.28527 14.3968H2.24572ZM12.1855 5.58461L11.6191 5.00958L11.058 4.4571L12.1855 5.58461Z" fill="#1C1B1F"/>
</svg>
