<svg width="38" height="37" viewBox="0 0 38 37" fill="none" xmlns="http://www.w3.org/2000/svg">
<path d="M0.015625 27.5737V2.02054C0.015625 1.50339 0.190543 1.0699 0.540378 0.720065C0.890213 0.37023 1.3237 0.195312 1.84085 0.195312H25.5688C26.086 0.195312 26.5195 0.37023 26.8693 0.720065C27.2191 1.0699 27.394 1.50339 27.394 2.02054V18.4476C27.394 18.9647 27.2191 19.3982 26.8693 19.7481C26.5195 20.0979 26.086 20.2728 25.5688 20.2728H7.31654L0.015625 27.5737Z" fill="#772077"/>
<path d="M9.66117 29.3988C9.14402 29.3988 8.71053 29.2239 8.36069 28.8741C8.01086 28.5242 7.83594 28.0907 7.83594 27.5736V23.9231H31.5639V7.49609H35.2144C35.7315 7.49609 36.165 7.67101 36.5148 8.02085C36.8647 8.37068 37.0396 8.80417 37.0396 9.32132V36.6997L29.7387 29.3988H9.66117Z" fill="#C7C6CD"/>
</svg>
