<svg width="44" height="44" viewBox="0 0 44 44" fill="none" xmlns="http://www.w3.org/2000/svg">
<path fill-rule="evenodd" clip-rule="evenodd" d="M6.88889 23H37.1111C37.6463 23 38.0949 23.181 38.4569 23.5431C38.819 23.9051 39 24.3537 39 24.8889V38.1111C39 38.6463 38.819 39.0949 38.4569 39.4569C38.0949 39.819 37.6463 40 37.1111 40H6.88889C6.3537 40 5.90509 39.819 5.54306 39.4569C5.18102 39.0949 5 38.6463 5 38.1111V24.8889C5 24.3537 5.18102 23.9051 5.54306 23.5431C5.90509 23.181 6.3537 23 6.88889 23ZM20.8021 29.8021C21.3368 29.2674 21.9861 29 22.75 29C23.5139 29 24.1632 29.2674 24.6979 29.8021C25.2326 30.3368 25.5 30.9861 25.5 31.75C25.5 32.5139 25.2326 33.1632 24.6979 33.6979C24.1632 34.2326 23.5139 34.5 22.75 34.5C21.9861 34.5 21.3368 34.2326 20.8021 33.6979C20.2674 33.1632 20 32.5139 20 31.75C20 30.9861 20.2674 30.3368 20.8021 29.8021ZM13.25 29C12.4861 29 11.8368 29.2674 11.3021 29.8021C10.7674 30.3368 10.5 30.9861 10.5 31.75C10.5 32.5139 10.7674 33.1632 11.3021 33.6979C11.8368 34.2326 12.4861 34.5 13.25 34.5C14.0139 34.5 14.6632 34.2326 15.1979 33.6979C15.7326 33.1632 16 32.5139 16 31.75C16 30.9861 15.7326 30.3368 15.1979 29.8021C14.6632 29.2674 14.0139 29 13.25 29Z" fill="#C7C6CD"/>
<path fill-rule="evenodd" clip-rule="evenodd" d="M37.1111 4H6.88889C6.3537 4 5.90509 4.18102 5.54306 4.54306C5.18102 4.90509 5 5.3537 5 5.88889V19.1111C5 19.6463 5.18102 20.0949 5.54306 20.4569C5.90509 20.819 6.3537 21 6.88889 21H37.1111C37.6463 21 38.0949 20.819 38.4569 20.4569C38.819 20.0949 39 19.6463 39 19.1111V5.88889C39 5.3537 38.819 4.90509 38.4569 4.54306C38.0949 4.18102 37.6463 4 37.1111 4ZM13.25 10C12.4861 10 11.8368 10.2674 11.3021 10.8021C10.7674 11.3368 10.5 11.9861 10.5 12.75C10.5 13.5139 10.7674 14.1632 11.3021 14.6979C11.8368 15.2326 12.4861 15.5 13.25 15.5C14.0139 15.5 14.6632 15.2326 15.1979 14.6979C15.7326 14.1632 16 13.5139 16 12.75C16 11.9861 15.7326 11.3368 15.1979 10.8021C14.6632 10.2674 14.0139 10 13.25 10Z" fill="#772077"/>
</svg>
