<svg width="14" height="13" viewBox="0 0 14 13" fill="none" xmlns="http://www.w3.org/2000/svg">
<path d="M0.822354 6.2244L3.43801 8.41133L2.65447 11.6673C2.61301 11.8375 2.62484 12.0156 2.68849 12.1794C2.75213 12.3432 2.86477 12.4854 3.01231 12.5882C3.15985 12.6911 3.33576 12.7499 3.51803 12.7575C3.7003 12.765 3.88085 12.7209 4.03711 12.6307L7.00133 10.9083L9.95916 12.6307C10.1154 12.7209 10.296 12.765 10.4782 12.7575C10.6605 12.7499 10.8364 12.6911 10.984 12.5882C11.1315 12.4854 11.2441 12.3432 11.3078 12.1794C11.3714 12.0156 11.3833 11.8375 11.3418 11.6673L10.5594 8.41466L13.1757 6.2244C13.314 6.11006 13.4141 5.95914 13.4633 5.79054C13.5125 5.62194 13.5086 5.44318 13.4522 5.27668C13.3958 5.11017 13.2893 4.96334 13.1461 4.85458C13.0029 4.74582 12.8294 4.67998 12.6473 4.66532L9.19883 4.37918L7.85272 1.30326C7.78243 1.14186 7.66386 1.00399 7.51194 0.907017C7.36002 0.810045 7.18156 0.758301 6.99901 0.758301C6.81646 0.758301 6.63799 0.810045 6.48608 0.907017C6.33416 1.00399 6.21559 1.14186 6.1453 1.30326L4.79513 4.37918L1.3478 4.66532C1.16572 4.67998 0.992196 4.74582 0.849008 4.85458C0.705819 4.96334 0.599336 5.11017 0.542909 5.27668C0.486483 5.44318 0.482626 5.62194 0.531822 5.79054C0.581018 5.95914 0.681079 6.11006 0.819454 6.2244H0.822354Z" fill="#00B368"/>
</svg>
