<svg width="38" height="35" viewBox="0 0 38 35" fill="none" xmlns="http://www.w3.org/2000/svg">
<path d="M19.0013 34.501L16.343 32.1177C13.2569 29.3372 10.7055 26.9385 8.6888 24.9219C6.67214 22.9052 5.06797 21.0948 3.8763 19.4906C2.68464 17.8865 1.852 16.4122 1.37839 15.0677C0.904774 13.7233 0.667969 12.3483 0.667969 10.9427C0.667969 8.07049 1.63047 5.67188 3.55547 3.74688C5.48047 1.82187 7.87908 0.859375 10.7513 0.859375C12.3402 0.859375 13.8527 1.19549 15.2888 1.86771C16.7249 2.53993 17.9624 3.48715 19.0013 4.70938C20.0402 3.48715 21.2777 2.53993 22.7138 1.86771C24.1499 1.19549 25.6624 0.859375 27.2513 0.859375C30.1235 0.859375 32.5221 1.82187 34.4471 3.74688C36.3721 5.67188 37.3346 8.07049 37.3346 10.9427C37.3346 12.3483 37.0978 13.7233 36.6242 15.0677C36.1506 16.4122 35.318 17.8865 34.1263 19.4906C32.9346 21.0948 31.3305 22.9052 29.3138 24.9219C27.2971 26.9385 24.7457 29.3372 21.6596 32.1177L19.0013 34.501Z" fill="#772077"/>
</svg>
