<svg width="16" height="16" viewBox="0 0 16 16" fill="none" xmlns="http://www.w3.org/2000/svg">
<path d="M8 15.7773C6.9625 15.7773 5.9875 15.5805 5.075 15.1867C4.1625 14.793 3.36875 14.2586 2.69375 13.5836C2.01875 12.9086 1.48438 12.1148 1.09063 11.2023C0.696875 10.2898 0.5 9.31484 0.5 8.27734C0.5 7.23984 0.696875 6.26484 1.09063 5.35234C1.48438 4.43984 2.01875 3.64609 2.69375 2.97109C3.36875 2.29609 4.1625 1.76172 5.075 1.36797C5.9875 0.974219 6.9625 0.777344 8 0.777344C9.0375 0.777344 10.0125 0.974219 10.925 1.36797C11.8375 1.76172 12.6313 2.29609 13.3063 2.97109C13.9813 3.64609 14.5156 4.43984 14.9094 5.35234C15.3031 6.26484 15.5 7.23984 15.5 8.27734C15.5 9.31484 15.3031 10.2898 14.9094 11.2023C14.5156 12.1148 13.9813 12.9086 13.3063 13.5836C12.6313 14.2586 11.8375 14.793 10.925 15.1867C10.0125 15.5805 9.0375 15.7773 8 15.7773ZM8 14.2773C9.675 14.2773 11.0938 13.6961 12.2563 12.5336C13.4187 11.3711 14 9.95234 14 8.27734C14 8.18984 13.9969 8.09922 13.9906 8.00547C13.9844 7.91172 13.9813 7.83359 13.9813 7.77109C13.9187 8.13359 13.75 8.43359 13.475 8.67109C13.2 8.90859 12.875 9.02734 12.5 9.02734H11C10.5875 9.02734 10.2344 8.88047 9.94063 8.58672C9.64688 8.29297 9.5 7.93984 9.5 7.52734V6.77734H6.5V5.27734C6.5 4.86484 6.64688 4.51172 6.94063 4.21797C7.23438 3.92422 7.5875 3.77734 8 3.77734H8.75C8.75 3.48984 8.82812 3.23672 8.98438 3.01797C9.14062 2.79922 9.33125 2.62109 9.55625 2.48359C9.30625 2.42109 9.05313 2.37109 8.79688 2.33359C8.54062 2.29609 8.275 2.27734 8 2.27734C6.325 2.27734 4.90625 2.85859 3.74375 4.02109C2.58125 5.18359 2 6.60234 2 8.27734H5.75C6.575 8.27734 7.28125 8.57109 7.86875 9.15859C8.45625 9.74609 8.75 10.4523 8.75 11.2773V12.0273H6.5V14.0898C6.75 14.1523 6.99688 14.1992 7.24063 14.2305C7.48438 14.2617 7.7375 14.2773 8 14.2773Z" fill="#1C1B1F"/>
</svg>
