<svg width="15" height="15" viewBox="0 0 15 15" fill="none" xmlns="http://www.w3.org/2000/svg">
<path d="M11.0871 13.0045C11.0871 13.4323 10.9348 13.7985 10.6302 14.1031C10.3256 14.4077 9.95935 14.5601 9.53158 14.5601L4.86491 14.5601C4.43713 14.5601 4.07093 14.4077 3.7663 14.1031C3.46167 13.7985 3.30935 13.4323 3.30935 13.0045L3.30935 2.11561C3.30935 1.68784 3.46167 1.32163 3.7663 1.017C4.07093 0.712373 4.43713 0.560058 4.86491 0.560058L9.53158 0.560058C9.95935 0.560058 10.3256 0.712372 10.6302 1.017C10.9348 1.32163 11.0871 1.68784 11.0871 2.11561L11.0871 13.0045ZM9.53158 13.0045L9.53158 2.11561L4.86491 2.11561L4.86491 13.0045L9.53158 13.0045ZM1.7538 14.5601L0.198242 14.5601L0.198242 0.560059L1.7538 0.560059L1.7538 14.5601ZM14.1982 14.5601L12.6427 14.5601L12.6427 0.560058L14.1982 0.560058L14.1982 14.5601Z" fill="#1C1B1F"/>
</svg>
