<svg width="44" height="39" viewBox="0 0 44 39" fill="none" xmlns="http://www.w3.org/2000/svg">
<path d="M39.4676 29.7811L11.1338 37.3731C10.1598 37.6341 9.23307 37.5107 8.35364 37.003C7.4742 36.4952 6.904 35.7544 6.64302 34.7804L4.74502 27.6969C5.71899 27.4359 6.45985 26.8657 6.96759 25.9863C7.47533 25.1069 7.59872 24.1802 7.33774 23.2062C7.07676 22.2322 6.50656 21.4914 5.62712 20.9836C4.74769 20.4759 3.82098 20.3525 2.84701 20.6135L0.949003 13.53C0.688027 12.556 0.81141 11.6293 1.31915 10.7499C1.82689 9.87046 2.56775 9.30025 3.54173 9.03928L31.8756 1.44725C32.8495 1.18628 33.7762 1.30966 34.6557 1.8174C35.5351 2.32514 36.1053 3.066 36.3663 4.03998L38.2643 11.1234C37.2903 11.3844 36.5495 11.9546 36.0417 12.834C35.534 13.7135 35.4106 14.6402 35.6716 15.6142C35.9325 16.5881 36.5027 17.329 37.3822 17.8367C38.2616 18.3445 39.1883 18.4679 40.1623 18.2069L42.0603 25.2903C42.3213 26.2643 42.1979 27.191 41.6902 28.0705C41.1824 28.9499 40.4416 29.5201 39.4676 29.7811Z" fill="#772077"/>
<path d="M25.0006 27.4182C24.7521 27.8485 24.377 28.1309 23.8753 28.2654C23.3735 28.3998 22.9075 28.3428 22.4771 28.0943C22.0467 27.8459 21.7643 27.4708 21.6299 26.969C21.4954 26.4673 21.5525 26.0012 21.8009 25.5709C22.0494 25.1405 22.4245 24.8581 22.9263 24.7237C23.428 24.5892 23.8941 24.6462 24.3244 24.8947C24.7548 25.1432 25.0372 25.5183 25.1716 26.02C25.3061 26.5218 25.249 26.9878 25.0006 27.4182Z" fill="white"/>
<path d="M23.1026 20.3347C22.8541 20.7651 22.479 21.0475 21.9772 21.1819C21.4755 21.3164 21.0095 21.2594 20.5791 21.0109C20.1487 20.7624 19.8663 20.3873 19.7319 19.8856C19.5974 19.3838 19.6545 18.9178 19.9029 18.4874C20.1514 18.057 20.5265 17.7746 21.0282 17.6402C21.53 17.5058 21.996 17.5628 22.4264 17.8112C22.8568 18.0597 23.1392 18.4348 23.2736 18.9366C23.4081 19.4383 23.351 19.9044 23.1026 20.3347Z" fill="white"/>
<path d="M21.2046 13.2513C20.9561 13.6816 20.581 13.964 20.0792 14.0985C19.5775 14.2329 19.1114 14.1759 18.6811 13.9274C18.2507 13.679 17.9683 13.3039 17.8339 12.8021C17.6994 12.3004 17.7564 11.8343 18.0049 11.404C18.2534 10.9736 18.6285 10.6912 19.1302 10.5567C19.632 10.4223 20.098 10.4793 20.5284 10.7278C20.9588 10.9763 21.2412 11.3514 21.3756 11.8531C21.51 12.3549 21.453 12.8209 21.2046 13.2513Z" fill="white"/>
<path fill-rule="evenodd" clip-rule="evenodd" d="M20.5625 37.8486H40.0004C41.0087 37.8486 41.8719 37.4895 42.59 36.7715C43.308 36.0534 43.667 35.1902 43.667 34.1819V31.6577L20.5625 37.8486Z" fill="#C7C6CD"/>
</svg>
