<svg width="20" height="20" viewBox="0 0 20 20" fill="none" xmlns="http://www.w3.org/2000/svg">
<path d="M9.98898 15.6153C10.2745 15.6153 10.5157 15.5168 10.7125 15.3196C10.9093 15.1225 11.0077 14.8811 11.0077 14.5956C11.0077 14.31 10.9091 14.0689 10.7119 13.8721C10.5148 13.6753 10.2734 13.5769 9.9879 13.5769C9.70237 13.5769 9.46121 13.6755 9.26443 13.8726C9.06763 14.0698 8.96922 14.3111 8.96922 14.5967C8.96922 14.8822 9.0678 15.1234 9.26495 15.3202C9.4621 15.5169 9.70344 15.6153 9.98898 15.6153ZM9.28075 12.0346H10.6884C10.7012 11.5423 10.7734 11.149 10.9048 10.8548C11.0362 10.5606 11.3551 10.1705 11.8615 9.6846C12.3012 9.24485 12.6381 8.83876 12.8721 8.46633C13.106 8.09389 13.223 7.65407 13.223 7.14685C13.223 6.28613 12.9137 5.61378 12.2952 5.1298C11.6766 4.64583 10.9449 4.40385 10.1 4.40385C9.26538 4.40385 8.57468 4.62661 8.02788 5.07213C7.48109 5.51763 7.09103 6.04229 6.8577 6.64613L8.14228 7.1615C8.26408 6.82945 8.47241 6.50606 8.76727 6.19133C9.06216 5.87658 9.49998 5.7192 10.0808 5.7192C10.6718 5.7192 11.1086 5.88107 11.3913 6.2048C11.674 6.52852 11.8154 6.88461 11.8154 7.27308C11.8154 7.61281 11.7186 7.9237 11.525 8.20575C11.3314 8.4878 11.0846 8.76024 10.7846 9.02308C10.1282 9.61538 9.71346 10.0878 9.54038 10.4404C9.36729 10.7929 9.28075 11.3243 9.28075 12.0346ZM10.0016 19.5C8.68772 19.5 7.45268 19.2506 6.29655 18.752C5.1404 18.2533 4.13472 17.5765 3.2795 16.7217C2.42427 15.8669 1.74721 14.8616 1.24833 13.706C0.749442 12.5504 0.5 11.3156 0.5 10.0017C0.5 8.68772 0.749334 7.45268 1.248 6.29655C1.74667 5.1404 2.42342 4.13472 3.27825 3.2795C4.1331 2.42427 5.13834 1.74721 6.29398 1.24833C7.44959 0.749443 8.68437 0.5 9.9983 0.5C11.3122 0.5 12.5473 0.749334 13.7034 1.248C14.8596 1.74667 15.8652 2.42342 16.7205 3.27825C17.5757 4.1331 18.2527 5.13834 18.7516 6.29398C19.2505 7.44959 19.5 8.68437 19.5 9.9983C19.5 11.3122 19.2506 12.5473 18.752 13.7034C18.2533 14.8596 17.5765 15.8652 16.7217 16.7205C15.8669 17.5757 14.8616 18.2527 13.706 18.7516C12.5504 19.2505 11.3156 19.5 10.0016 19.5ZM9.99998 18C12.2333 18 14.125 17.225 15.675 15.675C17.225 14.125 18 12.2333 18 9.99998C18 7.76664 17.225 5.87498 15.675 4.32498C14.125 2.77498 12.2333 1.99998 9.99998 1.99998C7.76664 1.99998 5.87498 2.77498 4.32498 4.32498C2.77498 5.87498 1.99998 7.76664 1.99998 9.99998C1.99998 12.2333 2.77498 14.125 4.32498 15.675C5.87498 17.225 7.76664 18 9.99998 18Z" fill="#1C1B1F"/>
</svg>
