<svg width="21" height="21" viewBox="0 0 21 21" fill="none" xmlns="http://www.w3.org/2000/svg">
<path d="M9.36816 15.0532H11.3682V9.05322H9.36816V15.0532ZM10.3682 7.05322C10.6515 7.05322 10.889 6.95739 11.0807 6.76572C11.2723 6.57406 11.3682 6.33656 11.3682 6.05322C11.3682 5.76989 11.2723 5.53239 11.0807 5.34072C10.889 5.14906 10.6515 5.05322 10.3682 5.05322C10.0848 5.05322 9.84733 5.14906 9.65566 5.34072C9.464 5.53239 9.36816 5.76989 9.36816 6.05322C9.36816 6.33656 9.464 6.57406 9.65566 6.76572C9.84733 6.95739 10.0848 7.05322 10.3682 7.05322ZM10.3682 20.0532C8.98483 20.0532 7.68483 19.7907 6.46816 19.2657C5.2515 18.7407 4.19316 18.0282 3.29316 17.1282C2.39316 16.2282 1.68066 15.1699 1.15566 13.9532C0.630664 12.7366 0.368164 11.4366 0.368164 10.0532C0.368164 8.66989 0.630664 7.36989 1.15566 6.15322C1.68066 4.93656 2.39316 3.87822 3.29316 2.97822C4.19316 2.07822 5.2515 1.36572 6.46816 0.840723C7.68483 0.315723 8.98483 0.0532227 10.3682 0.0532227C11.7515 0.0532227 13.0515 0.315723 14.2682 0.840723C15.4848 1.36572 16.5432 2.07822 17.4432 2.97822C18.3432 3.87822 19.0557 4.93656 19.5807 6.15322C20.1057 7.36989 20.3682 8.66989 20.3682 10.0532C20.3682 11.4366 20.1057 12.7366 19.5807 13.9532C19.0557 15.1699 18.3432 16.2282 17.4432 17.1282C16.5432 18.0282 15.4848 18.7407 14.2682 19.2657C13.0515 19.7907 11.7515 20.0532 10.3682 20.0532ZM10.3682 18.0532C12.6015 18.0532 14.4932 17.2782 16.0432 15.7282C17.5932 14.1782 18.3682 12.2866 18.3682 10.0532C18.3682 7.81989 17.5932 5.92822 16.0432 4.37822C14.4932 2.82822 12.6015 2.05322 10.3682 2.05322C8.13483 2.05322 6.24316 2.82822 4.69316 4.37822C3.14316 5.92822 2.36816 7.81989 2.36816 10.0532C2.36816 12.2866 3.14316 14.1782 4.69316 15.7282C6.24316 17.2782 8.13483 18.0532 10.3682 18.0532Z" fill="#2490DE"/>
</svg>
