<svg width="17" height="17" viewBox="0 0 17 17" fill="none" xmlns="http://www.w3.org/2000/svg">
<path d="M7.56699 16.9621V15.4621C6.00449 15.2871 4.66387 14.6402 3.54512 13.5215C2.42637 12.4027 1.77949 11.0621 1.60449 9.49961H0.104492V7.99961H1.60449C1.77949 6.43711 2.42637 5.09648 3.54512 3.97773C4.66387 2.85898 6.00449 2.21211 7.56699 2.03711V0.537109H9.06699V2.03711C10.6295 2.21211 11.9701 2.85898 13.0889 3.97773C14.2076 5.09648 14.8545 6.43711 15.0295 7.99961H16.5295V9.49961H15.0295C14.8545 11.0621 14.2076 12.4027 13.0889 13.5215C11.9701 14.6402 10.6295 15.2871 9.06699 15.4621V16.9621H7.56699ZM8.31699 13.9996C9.76699 13.9996 11.0045 13.4871 12.0295 12.4621C13.0545 11.4371 13.567 10.1996 13.567 8.74961C13.567 7.29961 13.0545 6.06211 12.0295 5.03711C11.0045 4.01211 9.76699 3.49961 8.31699 3.49961C6.86699 3.49961 5.62949 4.01211 4.60449 5.03711C3.57949 6.06211 3.06699 7.29961 3.06699 8.74961C3.06699 10.1996 3.57949 11.4371 4.60449 12.4621C5.62949 13.4871 6.86699 13.9996 8.31699 13.9996Z" fill="#616068"/>
</svg>
