<svg width="18" height="18" viewBox="0 0 18 18" fill="none" xmlns="http://www.w3.org/2000/svg">
<path d="M8.3375 17.2502V15.7502C6.775 15.5752 5.43438 14.9283 4.31563 13.8096C3.19688 12.6908 2.55 11.3502 2.375 9.78769H0.875V8.28769H2.375C2.55 6.72519 3.19688 5.38457 4.31563 4.26582C5.43438 3.14707 6.775 2.5002 8.3375 2.3252V0.825195H9.8375V2.3252C11.4 2.5002 12.7406 3.14707 13.8594 4.26582C14.9781 5.38457 15.625 6.72519 15.8 8.28769H17.3V9.78769H15.8C15.625 11.3502 14.9781 12.6908 13.8594 13.8096C12.7406 14.9283 11.4 15.5752 9.8375 15.7502V17.2502H8.3375ZM9.0875 14.2877C10.5375 14.2877 11.775 13.7752 12.8 12.7502C13.825 11.7252 14.3375 10.4877 14.3375 9.03769C14.3375 7.5877 13.825 6.3502 12.8 5.3252C11.775 4.3002 10.5375 3.7877 9.0875 3.7877C7.6375 3.7877 6.4 4.3002 5.375 5.3252C4.35 6.3502 3.8375 7.5877 3.8375 9.03769C3.8375 10.4877 4.35 11.7252 5.375 12.7502C6.4 13.7752 7.6375 14.2877 9.0875 14.2877Z" fill="#616068"/>
</svg>
