<svg width="20" height="16" viewBox="0 0 20 16" fill="none" xmlns="http://www.w3.org/2000/svg">
<path d="M2.67025 15.3346C2.16608 15.3346 1.73448 15.1551 1.37546 14.7961C1.01643 14.4371 0.836914 14.0055 0.836914 13.5013V2.5013C0.836914 1.99714 1.01643 1.56554 1.37546 1.20651C1.73448 0.847483 2.16608 0.667969 2.67025 0.667969H17.3369C17.8411 0.667969 18.2727 0.847483 18.6317 1.20651C18.9907 1.56554 19.1702 1.99714 19.1702 2.5013V13.5013C19.1702 14.0055 18.9907 14.4371 18.6317 14.7961C18.2727 15.1551 17.8411 15.3346 17.3369 15.3346H2.67025ZM10.0036 8.91797L2.67025 4.33464V13.5013H17.3369V4.33464L10.0036 8.91797ZM10.0036 7.08464L17.3369 2.5013H2.67025L10.0036 7.08464ZM2.67025 4.33464V2.5013V13.5013V4.33464Z" fill="#FF3E3E"/>
</svg>
