<svg width="16" height="13" viewBox="0 0 16 13" fill="none" xmlns="http://www.w3.org/2000/svg">
<path d="M2 12.7773C1.5875 12.7773 1.23438 12.6305 0.940625 12.3367C0.646875 12.043 0.5 11.6898 0.5 11.2773V2.27734C0.5 1.86484 0.646875 1.51172 0.940625 1.21797C1.23438 0.924219 1.5875 0.777344 2 0.777344H14C14.4125 0.777344 14.7656 0.924219 15.0594 1.21797C15.3531 1.51172 15.5 1.86484 15.5 2.27734V11.2773C15.5 11.6898 15.3531 12.043 15.0594 12.3367C14.7656 12.6305 14.4125 12.7773 14 12.7773H2ZM8 7.52734L2 3.77734V11.2773H14V3.77734L8 7.52734ZM8 6.02734L14 2.27734H2L8 6.02734ZM2 3.77734V2.27734V11.2773V3.77734Z" fill="#1C1B1F"/>
</svg>
