<svg width="5" height="17" viewBox="0 0 5 17" fill="none" xmlns="http://www.w3.org/2000/svg">
<path d="M2.43457 16.1152C1.88457 16.1152 1.41374 15.9194 1.02207 15.5277C0.630404 15.1361 0.43457 14.6652 0.43457 14.1152C0.43457 13.5652 0.630404 13.0944 1.02207 12.7027C1.41374 12.3111 1.88457 12.1152 2.43457 12.1152C2.98457 12.1152 3.4554 12.3111 3.84707 12.7027C4.23874 13.0944 4.43457 13.5652 4.43457 14.1152C4.43457 14.6652 4.23874 15.1361 3.84707 15.5277C3.4554 15.9194 2.98457 16.1152 2.43457 16.1152ZM2.43457 10.1152C1.88457 10.1152 1.41374 9.9194 1.02207 9.52773C0.630404 9.13607 0.43457 8.66523 0.43457 8.11523C0.43457 7.56523 0.630404 7.0944 1.02207 6.70273C1.41374 6.31107 1.88457 6.11523 2.43457 6.11523C2.98457 6.11523 3.4554 6.31107 3.84707 6.70273C4.23874 7.0944 4.43457 7.56523 4.43457 8.11523C4.43457 8.66523 4.23874 9.13607 3.84707 9.52773C3.4554 9.9194 2.98457 10.1152 2.43457 10.1152ZM2.43457 4.11523C1.88457 4.11523 1.41374 3.9194 1.02207 3.52773C0.630404 3.13607 0.43457 2.66523 0.43457 2.11523C0.43457 1.56523 0.630404 1.0944 1.02207 0.702734C1.41374 0.311068 1.88457 0.115234 2.43457 0.115234C2.98457 0.115234 3.4554 0.311068 3.84707 0.702734C4.23874 1.0944 4.43457 1.56523 4.43457 2.11523C4.43457 2.66523 4.23874 3.13607 3.84707 3.52773C3.4554 3.9194 2.98457 4.11523 2.43457 4.11523Z" fill="#DADADA"/>
</svg>
