<svg width="16" height="15" viewBox="0 0 16 15" fill="none" xmlns="http://www.w3.org/2000/svg">
<path d="M5.6087 14.8986L4.27025 12.6428L1.72891 12.0861L1.977 9.46977L0.254883 7.4996L1.977 5.52942L1.72891 2.91309L4.27025 2.35636L5.6087 0.100586L8.00004 1.11597L10.3914 0.100586L11.7298 2.35636L14.2712 2.91309L14.0231 5.52942L15.7452 7.4996L14.0231 9.46977L14.2712 12.0861L11.7298 12.6428L10.3914 14.8986L8.00004 13.8832L5.6087 14.8986ZM6.08754 13.4621L8.00004 12.6515L9.93562 13.4621L11 11.6621L13.0625 11.189L12.875 9.0746L14.2625 7.4996L12.875 5.90152L13.0625 3.7871L11 3.3371L9.91254 1.5371L8.00004 2.34768L6.06446 1.5371L5.00004 3.3371L2.93754 3.7871L3.12504 5.90152L1.73754 7.4996L3.12504 9.0746L2.93754 11.2121L5.00004 11.6621L6.08754 13.4621ZM7.21254 9.90247L11.1904 5.9246L10.4 5.11115L7.21254 8.29865L5.60004 6.70923L4.80967 7.4996L7.21254 9.90247Z" fill="#25C2AF"/>
</svg>
