<svg width="14" height="12" viewBox="0 0 14 12" fill="none" xmlns="http://www.w3.org/2000/svg">
<path d="M1.87213 11.6673C1.53537 11.6673 1.25033 11.5506 1.01699 11.3173C0.783659 11.084 0.666992 10.7989 0.666992 10.4622V2.87245C0.666992 2.5357 0.783659 2.25065 1.01699 2.01732C1.25033 1.78398 1.53537 1.66732 1.87213 1.66732H3.90801L5.14134 0.333984H8.85928L10.0926 1.66732H12.1285C12.4652 1.66732 12.7503 1.78398 12.9836 2.01732C13.217 2.25065 13.3336 2.5357 13.3336 2.87245V10.4622C13.3336 10.7989 13.217 11.084 12.9836 11.3173C12.7503 11.5506 12.4652 11.6673 12.1285 11.6673H1.87213Z" fill="white"/>
</svg>
