<svg width="20" height="22" viewBox="0 0 20 22" fill="none" xmlns="http://www.w3.org/2000/svg">
<path d="M2.59758 21.6602C2.00802 21.6602 1.50331 21.4643 1.08347 21.0727C0.663626 20.681 0.453705 20.2102 0.453705 19.6602V6.66016C0.453705 6.11016 0.663626 5.63932 1.08347 5.24766C1.50331 4.85599 2.00802 4.66016 2.59758 4.66016H6.88535V6.66016H2.59758V19.6602H17.6047V6.66016H13.317V4.66016H17.6047C18.1943 4.66016 18.699 4.85599 19.1189 5.24766C19.5387 5.63932 19.7486 6.11016 19.7486 6.66016V19.6602C19.7486 20.2102 19.5387 20.681 19.1189 21.0727C18.699 21.4643 18.1943 21.6602 17.6047 21.6602H2.59758ZM10.1012 16.6602L5.81341 12.6602L7.31412 11.2602L9.02923 12.8352V0.660156H11.1731V12.8352L12.8882 11.2602L14.3889 12.6602L10.1012 16.6602Z" fill="#616068"/>
</svg>
