<svg width="22" height="18" viewBox="0 0 22 18" fill="none" xmlns="http://www.w3.org/2000/svg">
<path d="M2.425 7.32422C2.65833 6.72422 2.69583 6.19089 2.5375 5.72422C2.37917 5.25755 2.10833 4.79089 1.725 4.32422C1.175 3.65755 0.8125 3.02839 0.6375 2.43672C0.4625 1.84505 0.433333 1.14089 0.55 0.324219H2.5C2.36667 0.957552 2.34583 1.47422 2.4375 1.87422C2.52917 2.27422 2.76667 2.70755 3.15 3.17422C3.78333 3.94089 4.1875 4.62005 4.3625 5.21172C4.5375 5.80339 4.54167 6.50755 4.375 7.32422H2.425ZM6.425 7.32422C6.65833 6.72422 6.7 6.19089 6.55 5.72422C6.4 5.25755 6.13333 4.79089 5.75 4.32422C5.2 3.65755 4.83333 3.02839 4.65 2.43672C4.46667 1.84505 4.43333 1.14089 4.55 0.324219H6.5C6.36667 0.957552 6.34583 1.47422 6.4375 1.87422C6.52917 2.27422 6.76667 2.70755 7.15 3.17422C7.78333 3.94089 8.1875 4.62005 8.3625 5.21172C8.5375 5.80339 8.54167 6.50755 8.375 7.32422H6.425ZM10.425 7.32422C10.6583 6.72422 10.7 6.19089 10.55 5.72422C10.4 5.25755 10.1333 4.79089 9.75 4.32422C9.2 3.65755 8.83333 3.02839 8.65 2.43672C8.46667 1.84505 8.43333 1.14089 8.55 0.324219H10.5C10.3667 0.957552 10.3458 1.47422 10.4375 1.87422C10.5292 2.27422 10.7667 2.70755 11.15 3.17422C11.7833 3.94089 12.1875 4.62005 12.3625 5.21172C12.5375 5.80339 12.5417 6.50755 12.375 7.32422H10.425ZM3 17.3242C2.16667 17.3242 1.45833 17.0326 0.875 16.4492C0.291667 15.8659 0 15.1576 0 14.3242V9.32422H14.025C14.1083 8.75755 14.3333 8.26172 14.7 7.83672C15.0667 7.41172 15.5167 7.10755 16.05 6.92422L20.675 5.37422L21.3 7.27422L16.675 8.82422C16.475 8.89089 16.3125 9.01172 16.1875 9.18672C16.0625 9.36172 16 9.55755 16 9.77422V14.3242C16 15.1576 15.7083 15.8659 15.125 16.4492C14.5417 17.0326 13.8333 17.3242 13 17.3242H3ZM3 15.3242H13C13.2833 15.3242 13.5208 15.2284 13.7125 15.0367C13.9042 14.8451 14 14.6076 14 14.3242V11.3242H2V14.3242C2 14.6076 2.09583 14.8451 2.2875 15.0367C2.47917 15.2284 2.71667 15.3242 3 15.3242Z" fill="black"/>
</svg>
