<svg width="18" height="15" viewBox="0 0 18 15" fill="none" xmlns="http://www.w3.org/2000/svg">
<path d="M2.66663 14.9909C1.97218 14.9909 1.3819 14.7478 0.895793 14.2617C0.409682 13.7756 0.166626 13.1853 0.166626 12.4909V8.32422H11.8541C11.9236 7.852 12.1111 7.4388 12.4166 7.08464C12.7222 6.73047 13.0972 6.477 13.5416 6.32422L17.3958 5.03255L17.9166 6.61589L14.0625 7.90755C13.8958 7.96311 13.7604 8.0638 13.6562 8.20964C13.552 8.35547 13.5 8.51866 13.5 8.69922V12.4909C13.5 13.1853 13.2569 13.7756 12.7708 14.2617C12.2847 14.7478 11.6944 14.9909 11 14.9909H2.66663ZM2.18746 6.65755C2.3819 6.15755 2.41315 5.71311 2.28121 5.32422C2.14926 4.93533 1.92357 4.54644 1.60413 4.15755C1.14579 3.602 0.843709 3.07769 0.697876 2.58464C0.552043 2.09158 0.527737 1.50477 0.624959 0.824219H2.24996C2.13885 1.352 2.12149 1.78255 2.19788 2.11589C2.27427 2.44922 2.47218 2.81033 2.79163 3.19922C3.3194 3.83811 3.65621 4.40408 3.80204 4.89714C3.94788 5.39019 3.95135 5.977 3.81246 6.65755H2.18746ZM5.52079 6.65755C5.71524 6.15755 5.74996 5.71311 5.62496 5.32422C5.49996 4.93533 5.27774 4.54644 4.95829 4.15755C4.49996 3.602 4.1944 3.07769 4.04163 2.58464C3.88885 2.09158 3.86107 1.50477 3.95829 0.824219H5.58329C5.47218 1.352 5.45482 1.78255 5.53121 2.11589C5.6076 2.44922 5.80552 2.81033 6.12496 3.19922C6.65274 3.83811 6.98954 4.40408 7.13538 4.89714C7.28121 5.39019 7.28468 5.977 7.14579 6.65755H5.52079ZM8.85413 6.65755C9.04857 6.15755 9.08329 5.71311 8.95829 5.32422C8.83329 4.93533 8.61107 4.54644 8.29163 4.15755C7.83329 3.602 7.52774 3.07769 7.37496 2.58464C7.22218 2.09158 7.1944 1.50477 7.29163 0.824219H8.91663C8.80552 1.352 8.78815 1.78255 8.86454 2.11589C8.94093 2.44922 9.13885 2.81033 9.45829 3.19922C9.98607 3.83811 10.3229 4.40408 10.4687 4.89714C10.6145 5.39019 10.618 5.977 10.4791 6.65755H8.85413Z" fill="#1800B5"/>
</svg>
