<svg width="18" height="17" viewBox="0 0 18 17" fill="none" xmlns="http://www.w3.org/2000/svg">
<path d="M8.1875 12.4283V3.32832L5.51668 5.99914L4.37503 4.82419L8.99997 0.199219L13.6249 4.82419L12.4833 5.99914L9.81244 3.32832V12.4283H8.1875ZM2.83334 16.4492C2.28611 16.4492 1.82292 16.2596 1.44375 15.8804C1.06458 15.5012 0.875 15.038 0.875 14.4908V11.5534H2.49997V14.4908C2.49997 14.5742 2.53469 14.6506 2.60413 14.72C2.67359 14.7895 2.75 14.8242 2.83334 14.8242H15.1666C15.2499 14.8242 15.3263 14.7895 15.3958 14.72C15.4653 14.6506 15.5 14.5742 15.5 14.4908V11.5534H17.1249V14.4908C17.1249 15.038 16.9354 15.5012 16.5562 15.8804C16.177 16.2596 15.7138 16.4492 15.1666 16.4492H2.83334Z" fill="#616068"/>
</svg>
