<svg width="18" height="16" viewBox="0 0 18 16" fill="none" xmlns="http://www.w3.org/2000/svg">
<path fill-rule="evenodd" clip-rule="evenodd" d="M4.98578 1.08506C4.6817 0.409946 4.36203 0.394427 4.07354 0.386667C3.83963 0.378907 3.56674 0.378906 3.29384 0.378906C3.02095 0.378906 2.58432 0.479785 2.21006 0.883301C1.83581 1.28682 0.791016 2.26457 0.791016 4.25886C0.791016 6.2454 2.24905 8.16986 2.45177 8.44146C2.65449 8.71306 5.26647 12.9267 9.39107 14.5485C12.8217 15.8987 13.5235 15.6271 14.2642 15.5573C15.0049 15.4875 16.6656 14.5795 17.0087 13.6328C17.344 12.6861 17.344 11.8791 17.2426 11.7084C17.1413 11.5377 16.8684 11.4368 16.4629 11.235C16.0575 11.0333 14.0614 10.0555 13.6872 9.91584C13.3129 9.78392 13.04 9.71408 12.775 10.1176C12.5021 10.5211 11.7224 11.429 11.4885 11.7006C11.2545 11.9722 11.0128 12.0033 10.6074 11.8015C10.202 11.5997 8.89206 11.1729 7.34047 9.79168C6.13194 8.72081 5.31325 7.39387 5.07935 6.99035C4.84544 6.58684 5.05595 6.36956 5.25868 6.1678C5.43801 5.98933 5.66412 5.69445 5.86684 5.46165C6.06956 5.22885 6.13973 5.05814 6.27228 4.78654C6.40483 4.51494 6.34245 4.28214 6.24109 4.08039C6.13973 3.88639 5.34444 1.88433 4.98578 1.08506Z" fill="#0075E1"/>
</svg>
