<svg width="20" height="20" viewBox="0 0 20 20" fill="none" xmlns="http://www.w3.org/2000/svg">
<path d="M4.02283 15.2923C4.87283 14.6615 5.79879 14.1635 6.80071 13.7981C7.80262 13.4327 8.86896 13.25 9.99973 13.25C11.1305 13.25 12.1968 13.4327 13.1988 13.7981C14.2007 14.1635 15.1266 14.6615 15.9766 15.2923C16.5984 14.609 17.0911 13.8179 17.4545 12.9192C17.818 12.0205 17.9997 11.0474 17.9997 9.99998C17.9997 7.78331 17.2206 5.89581 15.6622 4.33748C14.1039 2.77914 12.2164 1.99998 9.99973 1.99998C7.78306 1.99998 5.89556 2.77914 4.33723 4.33748C2.7789 5.89581 1.99973 7.78331 1.99973 9.99998C1.99973 11.0474 2.18146 12.0205 2.54493 12.9192C2.9084 13.8179 3.40103 14.609 4.02283 15.2923ZM10 10.75C9.08702 10.75 8.31705 10.4366 7.69013 9.80988C7.06321 9.18314 6.74976 8.41328 6.74976 7.50028C6.74976 6.58726 7.06311 5.81729 7.68983 5.19038C8.31656 4.56346 9.08643 4.25 9.99943 4.25C10.9124 4.25 11.6824 4.56336 12.3093 5.19008C12.9362 5.81681 13.2497 6.58668 13.2497 7.49968C13.2497 8.41269 12.9363 9.18266 12.3096 9.80958C11.6829 10.4365 10.913 10.75 10 10.75ZM9.99973 19.5C8.6805 19.5 7.44301 19.2519 6.28726 18.7557C5.13149 18.2596 4.12604 17.5839 3.27091 16.7288C2.41579 15.8737 1.74016 14.8682 1.24401 13.7125C0.747839 12.5567 0.499756 11.3192 0.499756 9.99998C0.499756 8.68074 0.747839 7.44325 1.24401 6.2875C1.74016 5.13173 2.41579 4.12628 3.27091 3.27115C4.12604 2.41603 5.13149 1.7404 6.28726 1.24425C7.44301 0.748084 8.6805 0.5 9.99973 0.5C11.319 0.5 12.5565 0.748084 13.7122 1.24425C14.868 1.7404 15.8734 2.41603 16.7286 3.27115C17.5837 4.12628 18.2593 5.13173 18.7555 6.2875C19.2516 7.44325 19.4997 8.68074 19.4997 9.99998C19.4997 11.3192 19.2516 12.5567 18.7555 13.7125C18.2593 14.8682 17.5837 15.8737 16.7286 16.7288C15.8734 17.5839 14.868 18.2596 13.7122 18.7557C12.5565 19.2519 11.319 19.5 9.99973 19.5ZM9.99973 18C10.9023 18 11.7725 17.8548 12.6103 17.5644C13.4481 17.274 14.1921 16.8679 14.8421 16.3461C14.1921 15.8436 13.4578 15.4519 12.6392 15.1711C11.8206 14.8903 10.9408 14.75 9.99973 14.75C9.0587 14.75 8.17728 14.8887 7.35548 15.1663C6.53368 15.4439 5.80099 15.8371 5.15741 16.3461C5.80741 16.8679 6.55132 17.274 7.38916 17.5644C8.22697 17.8548 9.09716 18 9.99973 18ZM9.99973 9.25C10.4972 9.25 10.9132 9.08269 11.2478 8.74808C11.5824 8.41344 11.7498 7.99741 11.7498 7.49998C11.7498 7.00254 11.5824 6.58651 11.2478 6.25188C10.9132 5.91726 10.4972 5.74995 9.99973 5.74995C9.5023 5.74995 9.08626 5.91726 8.75163 6.25188C8.41701 6.58651 8.24971 7.00254 8.24971 7.49998C8.24971 7.99741 8.41701 8.41344 8.75163 8.74808C9.08626 9.08269 9.5023 9.25 9.99973 9.25Z" fill="#1C1B1F"/>
</svg>
