<svg width="25" height="25" viewBox="0 0 25 25" fill="none" xmlns="http://www.w3.org/2000/svg">
<mask id="mask0_2729_5664" style="mask-type:alpha" maskUnits="userSpaceOnUse" x="0" y="0" width="25" height="25">
<rect x="0.625" y="0.291504" width="24" height="24" fill="#D9D9D9"/>
</mask>
<g mask="url(#mask0_2729_5664)">
<path d="M11.625 17.2915H13.625V13.2915H17.625V11.2915H13.625V7.2915H11.625V11.2915H7.625V13.2915H11.625V17.2915ZM5.625 21.2915C5.075 21.2915 4.60417 21.0957 4.2125 20.704C3.82083 20.3123 3.625 19.8415 3.625 19.2915V5.2915C3.625 4.7415 3.82083 4.27067 4.2125 3.879C4.60417 3.48734 5.075 3.2915 5.625 3.2915H19.625C20.175 3.2915 20.6458 3.48734 21.0375 3.879C21.4292 4.27067 21.625 4.7415 21.625 5.2915V19.2915C21.625 19.8415 21.4292 20.3123 21.0375 20.704C20.6458 21.0957 20.175 21.2915 19.625 21.2915H5.625ZM5.625 19.2915H19.625V5.2915H5.625V19.2915Z" fill="#616068"/>
</g>
</svg>
