<svg width="20" height="23" viewBox="0 0 20 23" fill="none" xmlns="http://www.w3.org/2000/svg">
<path d="M2.19236 22.8608C1.60304 22.8608 1.10421 22.6566 0.695874 22.2483C0.287541 21.84 0.083374 21.3411 0.083374 20.7518V5.13649C0.083374 4.54717 0.287541 4.04834 0.695874 3.64001C1.10421 3.23167 1.60304 3.02751 2.19236 3.02751H3.80775V0.55957H5.60258V3.02751H14.4423V0.55957H16.1923V3.02751H17.8077C18.397 3.02751 18.8958 3.23167 19.3042 3.64001C19.7125 4.04834 19.9167 4.54717 19.9167 5.13649V20.7518C19.9167 21.3411 19.7125 21.84 19.3042 22.2483C18.8958 22.6566 18.397 22.8608 17.8077 22.8608H2.19236ZM2.19236 21.1108H17.8077C17.8974 21.1108 17.9797 21.0734 18.0545 20.9986C18.1293 20.9238 18.1667 20.8416 18.1667 20.7518V9.80316H1.83334V20.7518C1.83334 20.8416 1.87074 20.9238 1.94552 20.9986C2.02032 21.0734 2.1026 21.1108 2.19236 21.1108ZM1.83334 8.05319H18.1667V5.13649C18.1667 5.04674 18.1293 4.96446 18.0545 4.88965C17.9797 4.81487 17.8974 4.77748 17.8077 4.77748H2.19236C2.1026 4.77748 2.02032 4.81487 1.94552 4.88965C1.87074 4.96446 1.83334 5.04674 1.83334 5.13649V8.05319Z" fill="#1F1E24"/>
</svg>
