<svg width="20" height="18" viewBox="0 0 20 18" fill="none" xmlns="http://www.w3.org/2000/svg">
<path d="M9.99998 17.3272L8.89615 16.335C7.23847 14.8311 5.86763 13.5388 4.78365 12.458C3.69968 11.3773 2.84072 10.4154 2.20675 9.57247C1.57277 8.72952 1.12982 7.96061 0.8779 7.26574C0.625967 6.57087 0.5 5.86575 0.5 5.15037C0.5 3.73115 0.978525 2.54302 1.93558 1.58597C2.89263 0.628916 4.08076 0.150391 5.49998 0.150391C6.37306 0.150391 7.19806 0.354567 7.97498 0.762917C8.75189 1.17125 9.42689 1.75682 9.99998 2.51964C10.5731 1.75682 11.2481 1.17125 12.025 0.762917C12.8019 0.354567 13.6269 0.150391 14.5 0.150391C15.9192 0.150391 17.1073 0.628916 18.0644 1.58597C19.0214 2.54302 19.5 3.73115 19.5 5.15037C19.5 5.86575 19.374 6.57087 19.1221 7.26574C18.8701 7.96061 18.4272 8.72952 17.7932 9.57247C17.1592 10.4154 16.3019 11.3773 15.2211 12.458C14.1403 13.5388 12.7679 14.8311 11.1038 16.335L9.99998 17.3272ZM9.99998 15.3004C11.6 13.8606 12.9166 12.6266 13.95 11.5984C14.9833 10.5702 15.8 9.67697 16.4 8.91864C17 8.16031 17.4166 7.48691 17.65 6.89844C17.8833 6.30997 18 5.72728 18 5.15037C18 4.15037 17.6666 3.31703 17 2.65037C16.3333 1.9837 15.5 1.65037 14.5 1.65037C13.7102 1.65037 12.9804 1.87441 12.3106 2.32249C11.6407 2.77056 11.1102 3.39396 10.7192 4.19269H9.28075C8.88332 3.38756 8.35127 2.76255 7.6846 2.31767C7.01793 1.8728 6.28973 1.65037 5.49998 1.65037C4.50639 1.65037 3.67466 1.9837 3.00478 2.65037C2.33491 3.31703 1.99998 4.15037 1.99998 5.15037C1.99998 5.72728 2.11664 6.30997 2.34998 6.89844C2.58331 7.48691 2.99998 8.16031 3.59998 8.91864C4.19998 9.67697 5.01664 10.5686 6.04998 11.5936C7.08331 12.6186 8.39997 13.8542 9.99998 15.3004Z" fill="#1C1B1F"/>
</svg>
