<svg width="45" height="45" viewBox="0 0 45 45" fill="none" xmlns="http://www.w3.org/2000/svg">
<circle cx="22.2324" cy="22.5889" r="22.0889" fill="#FFDA39"/>
<path d="M14.2751 16.0208L13.9215 15.6672L13.5679 16.0208L10.9724 18.6163L10.3391 17.9829L13.9215 14.4005L17.5039 17.9829L16.8706 18.6163L14.2751 16.0208ZM30.897 16.0208L30.5435 15.6672L30.1899 16.0208L27.5944 18.6163L26.961 17.9829L30.5435 14.4005L34.1259 17.9829L33.4925 18.6163L30.897 16.0208Z" stroke="#1F1E24"/>
<path d="M32.3654 29.1807H12.1978H12.0836C13.0762 31.1441 16.5454 35.0711 22.4814 35.0711C27.6997 35.3373 31.245 31.2551 32.3654 29.1807Z" fill="#1F1E24" stroke="black"/>
<path d="M28.6105 33.3032C26.6505 34.5601 24.5286 35.1855 22.232 35.1855C19.9354 35.1855 17.8135 34.5601 15.8535 33.3032C14.1686 32.2227 12.8326 30.8391 11.8404 29.1469H32.6236C31.6313 30.8391 30.2954 32.2227 28.6105 33.3032Z" stroke="#1F1E24" stroke-width="1.2"/>
</svg>
