<svg width="19" height="16" viewBox="0 0 19 16" fill="none" xmlns="http://www.w3.org/2000/svg">
<path d="M14.5 12.4909V9.99088H12V8.32422H14.5V5.82422H16.1667V8.32422H18.6667V9.99088H16.1667V12.4909H14.5ZM8.66671 15.8242L6.02087 13.4492C5.02087 12.5464 4.16324 11.7409 3.44796 11.0326C2.73268 10.3242 2.1424 9.65755 1.67712 9.03255C1.21185 8.40755 0.871569 7.80339 0.656291 7.22005C0.441013 6.63672 0.333374 6.02561 0.333374 5.38672C0.333374 4.08116 0.770874 2.99436 1.64587 2.1263C2.52087 1.25825 3.61115 0.824219 4.91671 0.824219C5.63893 0.824219 6.32643 0.973524 6.97921 1.27214C7.63199 1.57075 8.19449 1.99783 8.66671 2.55339C9.13893 1.99783 9.70143 1.57075 10.3542 1.27214C11.007 0.973524 11.6945 0.824219 12.4167 0.824219C13.5973 0.824219 14.5868 1.18186 15.3855 1.89714C16.1841 2.61241 16.6806 3.44922 16.875 4.40755C16.625 4.31033 16.375 4.23741 16.125 4.1888C15.875 4.14019 15.632 4.11589 15.3959 4.11589C13.9931 4.11589 12.7987 4.60547 11.8125 5.58464C10.8264 6.5638 10.3334 7.75477 10.3334 9.15755C10.3334 9.87977 10.4792 10.5638 10.7709 11.2096C11.0625 11.8555 11.4723 12.4076 12 12.8659C11.7362 13.102 11.3924 13.4041 10.9688 13.7721C10.5452 14.1402 10.1806 14.4631 9.87504 14.7409L8.66671 15.8242Z" fill="#1800B5"/>
</svg>
