<svg width="20" height="20" viewBox="0 0 20 20" fill="none" xmlns="http://www.w3.org/2000/svg">
<path d="M9.98898 15.754C10.2745 15.754 10.5157 15.6554 10.7125 15.4583C10.9093 15.2611 11.0077 15.0198 11.0077 14.7342C11.0077 14.4487 10.9091 14.2076 10.7119 14.0108C10.5148 13.814 10.2734 13.7156 9.9879 13.7156C9.70237 13.7156 9.46121 13.8141 9.26443 14.0113C9.06763 14.2084 8.96922 14.4498 8.96922 14.7353C8.96922 15.0209 9.0678 15.262 9.26495 15.4588C9.4621 15.6556 9.70344 15.754 9.98898 15.754ZM9.28075 12.1732H10.6884C10.7012 11.6809 10.7734 11.2877 10.9048 10.9934C11.0362 10.6992 11.3551 10.3092 11.8615 9.82327C12.3012 9.38352 12.6381 8.97743 12.8721 8.605C13.106 8.23256 13.223 7.79274 13.223 7.28552C13.223 6.42481 12.9137 5.75246 12.2952 5.26847C11.6766 4.78451 10.9449 4.54252 10.1 4.54252C9.26538 4.54252 8.57468 4.76528 8.02788 5.2108C7.48109 5.6563 7.09103 6.18096 6.8577 6.7848L8.14228 7.30017C8.26408 6.96812 8.47241 6.64473 8.76727 6.33C9.06216 6.01525 9.49998 5.85787 10.0808 5.85787C10.6718 5.85787 11.1086 6.01974 11.3913 6.34347C11.674 6.66719 11.8154 7.02328 11.8154 7.41175C11.8154 7.75148 11.7186 8.06237 11.525 8.34442C11.3314 8.62647 11.0846 8.89892 10.7846 9.16175C10.1282 9.75405 9.71346 10.2265 9.54038 10.579C9.36729 10.9316 9.28075 11.463 9.28075 12.1732ZM10.0016 19.6386C8.68772 19.6386 7.45268 19.3893 6.29655 18.8906C5.1404 18.392 4.13472 17.7152 3.2795 16.8604C2.42427 16.0055 1.74721 15.0003 1.24833 13.8446C0.749442 12.689 0.5 11.4543 0.5 10.1403C0.5 8.82639 0.749334 7.59136 1.248 6.43522C1.74667 5.27907 2.42342 4.27339 3.27825 3.41817C4.1331 2.56294 5.13834 1.88588 6.29398 1.387C7.44959 0.888115 8.68437 0.638672 9.9983 0.638672C11.3122 0.638672 12.5473 0.888006 13.7034 1.38667C14.8596 1.88534 15.8652 2.56209 16.7205 3.41692C17.5757 4.27177 18.2527 5.27701 18.7516 6.43265C19.2505 7.58826 19.5 8.82304 19.5 10.137C19.5 11.4509 19.2506 12.6859 18.752 13.8421C18.2533 14.9982 17.5765 16.0039 16.7217 16.8591C15.8669 17.7144 14.8616 18.3914 13.706 18.8903C12.5504 19.3892 11.3156 19.6386 10.0016 19.6386ZM9.99998 18.1386C12.2333 18.1386 14.125 17.3636 15.675 15.8136C17.225 14.2636 18 12.372 18 10.1386C18 7.90531 17.225 6.01365 15.675 4.46365C14.125 2.91365 12.2333 2.13865 9.99998 2.13865C7.76664 2.13865 5.87498 2.91365 4.32498 4.46365C2.77498 6.01365 1.99998 7.90531 1.99998 10.1386C1.99998 12.372 2.77498 14.2636 4.32498 15.8136C5.87498 17.3636 7.76664 18.1386 9.99998 18.1386Z" fill="#F0A81C"/>
</svg>
