<svg width="25" height="25" viewBox="0 0 25 25" fill="none" xmlns="http://www.w3.org/2000/svg">
<g clip-path="url(#clip0_2729_5652)">
<path d="M7.12695 16.6907H17.127M21.127 20.5342C21.127 20.7891 21.0216 21.0335 20.8341 21.2137C20.6465 21.3939 20.3922 21.4951 20.127 21.4951H4.12695C3.86174 21.4951 3.60738 21.3939 3.41985 21.2137C3.23231 21.0335 3.12695 20.7891 3.12695 20.5342V10.4353C3.12685 10.2889 3.16157 10.1444 3.22847 10.0128C3.29537 9.88124 3.39267 9.76611 3.51295 9.67621L11.513 3.69757C11.6885 3.56636 11.9046 3.49512 12.127 3.49512C12.3494 3.49512 12.5654 3.56636 12.741 3.69757L20.741 9.67621C20.8612 9.76611 20.9585 9.88124 21.0254 10.0128C21.0923 10.1444 21.1271 10.2889 21.127 10.4353V20.5342Z" stroke="#772077" stroke-width="2"/>
</g>
<defs>
<clipPath id="clip0_2729_5652">
<rect width="24" height="24" fill="white" transform="translate(0.126953 0.495117)"/>
</clipPath>
</defs>
</svg>
