<svg width="14" height="17" viewBox="0 0 14 17" fill="none" xmlns="http://www.w3.org/2000/svg">
<path d="M7.10807 8.60091C7.56641 8.60091 7.95877 8.43772 8.28516 8.11133C8.61154 7.78494 8.77474 7.39258 8.77474 6.93424C8.77474 6.47591 8.61154 6.08355 8.28516 5.75716C7.95877 5.43077 7.56641 5.26758 7.10807 5.26758C6.64974 5.26758 6.25738 5.43077 5.93099 5.75716C5.6046 6.08355 5.44141 6.47591 5.44141 6.93424C5.44141 7.39258 5.6046 7.78494 5.93099 8.11133C6.25738 8.43772 6.64974 8.60091 7.10807 8.60091ZM7.10807 16.9342C4.87196 15.0315 3.20182 13.2641 2.09766 11.6322C0.99349 10.0002 0.441406 8.4898 0.441406 7.10091C0.441406 5.01758 1.11155 3.35786 2.45182 2.12174C3.7921 0.885634 5.34418 0.267578 7.10807 0.267578C8.87196 0.267578 10.424 0.885634 11.7643 2.12174C13.1046 3.35786 13.7747 5.01758 13.7747 7.10091C13.7747 8.4898 13.2227 10.0002 12.1185 11.6322C11.0143 13.2641 9.34418 15.0315 7.10807 16.9342Z" fill="#1C1B1F"/>
</svg>
