<svg width="15" height="18" viewBox="0 0 15 18" fill="none" xmlns="http://www.w3.org/2000/svg">
<path d="M7.55713 8.77734C8.0169 8.77734 8.41048 8.61364 8.73789 8.28623C9.0653 7.95882 9.22901 7.56523 9.22901 7.10547C9.22901 6.6457 9.0653 6.25212 8.73789 5.92471C8.41048 5.5973 8.0169 5.43359 7.55713 5.43359C7.09736 5.43359 6.70378 5.5973 6.37637 5.92471C6.04896 6.25212 5.88525 6.6457 5.88525 7.10547C5.88525 7.56523 6.04896 7.95882 6.37637 8.28623C6.70378 8.61364 7.09736 8.77734 7.55713 8.77734ZM7.55713 14.9215C9.25687 13.3611 10.5177 11.9435 11.3397 10.6687C12.1618 9.39385 12.5728 8.26185 12.5728 7.27266C12.5728 5.75404 12.0886 4.51058 11.1203 3.54229C10.152 2.57399 8.96429 2.08984 7.55713 2.08984C6.14997 2.08984 4.96224 2.57399 3.99395 3.54229C3.02565 4.51058 2.5415 5.75404 2.5415 7.27266C2.5415 8.26185 2.95251 9.39385 3.77451 10.6687C4.59652 11.9435 5.85739 13.3611 7.55713 14.9215ZM7.55713 17.1367C5.31403 15.228 3.63867 13.4551 2.53106 11.8181C1.42344 10.181 0.869629 8.66588 0.869629 7.27266C0.869629 5.18281 1.54186 3.5179 2.88633 2.27793C4.2308 1.03796 5.78773 0.417969 7.55713 0.417969C9.32653 0.417969 10.8835 1.03796 12.2279 2.27793C13.5724 3.5179 14.2446 5.18281 14.2446 7.27266C14.2446 8.66588 13.6908 10.181 12.5832 11.8181C11.4756 13.4551 9.80023 15.228 7.55713 17.1367Z" fill="#1C1B1F"/>
</svg>
