<svg width="25" height="25" viewBox="0 0 25 25" fill="none" xmlns="http://www.w3.org/2000/svg">
<mask id="mask0_2729_5669" style="mask-type:alpha" maskUnits="userSpaceOnUse" x="0" y="0" width="25" height="25">
<rect x="0.375" y="0.456055" width="24" height="24" fill="#D9D9D9"/>
</mask>
<g mask="url(#mask0_2729_5669)">
<path d="M2.375 22.4561V4.45605C2.375 3.90605 2.57083 3.43522 2.9625 3.04355C3.35417 2.65189 3.825 2.45605 4.375 2.45605H14.475C14.4083 2.78939 14.375 3.12272 14.375 3.45605C14.375 3.78939 14.4083 4.12272 14.475 4.45605H4.375V17.5811L5.525 16.4561H20.375V8.35605C20.7583 8.27272 21.1167 8.16022 21.45 8.01855C21.7833 7.87689 22.0917 7.68939 22.375 7.45605V16.4561C22.375 17.0061 22.1792 17.4769 21.7875 17.8686C21.3958 18.2602 20.925 18.4561 20.375 18.4561H6.375L2.375 22.4561ZM19.375 6.45605C18.5417 6.45605 17.8333 6.16439 17.25 5.58105C16.6667 4.99772 16.375 4.28939 16.375 3.45605C16.375 2.62272 16.6667 1.91439 17.25 1.33105C17.8333 0.747721 18.5417 0.456055 19.375 0.456055C20.2083 0.456055 20.9167 0.747721 21.5 1.33105C22.0833 1.91439 22.375 2.62272 22.375 3.45605C22.375 4.28939 22.0833 4.99772 21.5 5.58105C20.9167 6.16439 20.2083 6.45605 19.375 6.45605Z" fill="#616068"/>
</g>
</svg>
