<svg width="17" height="19" viewBox="0 0 17 19" fill="none" xmlns="http://www.w3.org/2000/svg">
<path d="M8.09418 18.6612C7.59599 18.6612 7.1695 18.4838 6.81472 18.1291C6.45994 17.7743 6.28255 17.3478 6.28255 16.8496H9.90582C9.90582 17.3478 9.72843 17.7743 9.37365 18.1291C9.01887 18.4838 8.59238 18.6612 8.09418 18.6612ZM0.847656 15.9438V14.1322H2.65929V7.79145C2.65929 6.5384 3.03671 5.425 3.79156 4.45125C4.54641 3.4775 5.52771 2.83966 6.73546 2.53772V1.90365C6.73546 1.52622 6.86756 1.20541 7.13176 0.941216C7.39595 0.67702 7.71676 0.544922 8.09418 0.544922C8.47161 0.544922 8.79242 0.67702 9.05661 0.941216C9.32081 1.20541 9.45291 1.52622 9.45291 1.90365V2.19804C9.30194 2.49997 9.18871 2.81701 9.11323 3.14914C9.03774 3.48127 9 3.82096 9 4.16818C9 5.42123 9.44159 6.48934 10.3248 7.37251C11.2079 8.25568 12.276 8.69726 13.5291 8.69726V14.1322H15.3407V15.9438H0.847656ZM13.5291 6.88563C12.7742 6.88563 12.1326 6.62144 11.6042 6.09304C11.0758 5.56465 10.8116 4.92303 10.8116 4.16818C10.8116 3.41334 11.0758 2.77172 11.6042 2.24333C12.1326 1.71493 12.7742 1.45074 13.5291 1.45074C14.2839 1.45074 14.9255 1.71493 15.4539 2.24333C15.9823 2.77172 16.2465 3.41334 16.2465 4.16818C16.2465 4.92303 15.9823 5.56465 15.4539 6.09304C14.9255 6.62144 14.2839 6.88563 13.5291 6.88563Z" fill="#1C1B1F"/>
</svg>
