<svg width="18" height="16" viewBox="0 0 18 16" fill="none" xmlns="http://www.w3.org/2000/svg">
<path d="M14.6538 15.6543C13.7169 15.6543 12.925 15.3308 12.2781 14.6839C11.6312 14.037 11.3077 13.2451 11.3077 12.3082C11.3077 11.3712 11.6312 10.5793 12.2781 9.9324C12.925 9.28549 13.7169 8.96203 14.6538 8.96203C15.5907 8.96203 16.3826 9.28549 17.0296 9.9324C17.6765 10.5793 18 11.3712 18 12.3082C18 13.2451 17.6765 14.037 17.0296 14.6839C16.3826 15.3308 15.5907 15.6543 14.6538 15.6543ZM14.6529 14.1543C15.1625 14.1543 15.5977 13.9742 15.9586 13.6139C16.3195 13.2537 16.5 12.8187 16.5 12.3091C16.5 11.7995 16.3199 11.3643 15.9596 11.0034C15.5994 10.6425 15.1644 10.462 14.6548 10.462C14.1452 10.462 13.7099 10.6421 13.349 11.0024C12.9881 11.3626 12.8077 11.7976 12.8077 12.3072C12.8077 12.8168 12.9878 13.2521 13.348 13.613C13.7083 13.9739 14.1432 14.1543 14.6529 14.1543ZM1.5 13.0581V11.5582H9.11538V13.0581H1.5ZM3.34613 7.03893C2.40923 7.03893 1.61731 6.71547 0.970375 6.06855C0.323458 5.42164 0 4.62972 0 3.6928C0 2.75589 0.323458 1.96397 0.970375 1.31705C1.61731 0.670138 2.40923 0.34668 3.34613 0.34668C4.28304 0.34668 5.07496 0.670138 5.72188 1.31705C6.36879 1.96397 6.69225 2.75589 6.69225 3.6928C6.69225 4.62972 6.36879 5.42164 5.72188 6.06855C5.07496 6.71547 4.28304 7.03893 3.34613 7.03893ZM3.34518 5.53895C3.85479 5.53895 4.29005 5.35883 4.65095 4.99858C5.01185 4.63833 5.1923 4.2034 5.1923 3.69378C5.1923 3.18415 5.01218 2.74888 4.65193 2.38798C4.29168 2.02708 3.85673 1.84663 3.3471 1.84663C2.83748 1.84663 2.40223 2.02676 2.04133 2.38703C1.68043 2.74728 1.49998 3.18221 1.49998 3.69183C1.49998 4.20145 1.6801 4.6367 2.04035 4.9976C2.4006 5.3585 2.83554 5.53895 3.34518 5.53895ZM8.88458 4.44278V2.94283H16.5V4.44278H8.88458Z" fill="#1C1B1F"/>
</svg>
