<svg width="16" height="20" viewBox="0 0 16 20" fill="none" xmlns="http://www.w3.org/2000/svg">
<path d="M7.99997 19.4803C5.83716 18.8906 4.04646 17.6175 2.62787 15.6611C1.20929 13.7047 0.5 11.5175 0.5 9.09959V3.34576L7.99997 0.538086L15.5 3.34576V9.09959C15.5 10.3688 15.2919 11.5999 14.8759 12.7928C14.4599 13.9858 13.8435 15.079 13.0269 16.0726L9.88457 12.9303C9.61022 13.1201 9.31183 13.2624 8.9894 13.3572C8.66697 13.4521 8.33716 13.4996 7.99997 13.4996C7.03749 13.4996 6.21354 13.1569 5.52813 12.4714C4.84271 11.786 4.5 10.9621 4.5 9.99959C4.5 9.0371 4.84271 8.21315 5.52813 7.52774C6.21354 6.84232 7.03749 6.49961 7.99997 6.49961C8.96246 6.49961 9.78641 6.84232 10.4718 7.52774C11.1572 8.21315 11.5 9.0371 11.5 9.99959C11.5 10.3372 11.4541 10.6632 11.3625 10.9778C11.2708 11.2923 11.1397 11.5919 10.9692 11.8765L12.8346 13.7419C13.1936 13.0393 13.4775 12.3018 13.6865 11.5294C13.8955 10.757 14 9.94702 14 9.09959V4.37459L7.99997 2.13421L1.99997 4.37459V9.09959C1.99997 11.1163 2.56664 12.9496 3.69997 14.5996C4.83331 16.2496 6.26664 17.3496 7.99997 17.8996C8.43331 17.7663 8.84581 17.5954 9.23748 17.3871C9.62914 17.1788 10.0166 16.9329 10.4 16.6496L11.4153 17.7226C10.891 18.1278 10.3512 18.4762 9.79613 18.7678C9.24099 19.0595 8.64227 19.297 7.99997 19.4803ZM7.99997 11.9996C8.54997 11.9996 9.02081 11.8038 9.41247 11.4121C9.80414 11.0204 9.99998 10.5496 9.99998 9.99959C9.99998 9.44959 9.80414 8.97875 9.41247 8.58709C9.02081 8.19542 8.54997 7.99959 7.99997 7.99959C7.44997 7.99959 6.97914 8.19542 6.58747 8.58709C6.19581 8.97875 5.99997 9.44959 5.99997 9.99959C5.99997 10.5496 6.19581 11.0204 6.58747 11.4121C6.97914 11.8038 7.44997 11.9996 7.99997 11.9996Z" fill="#1C1B1F"/>
</svg>
