<svg width="16" height="13" viewBox="0 0 16 13" fill="none" xmlns="http://www.w3.org/2000/svg">
<path d="M13.9622 10.6665V7.33317H2.29557V10.6665H13.9622ZM13.9622 5.6665V2.33317H2.29557V5.6665H13.9622ZM2.29557 12.3332C1.83724 12.3332 1.44488 12.17 1.11849 11.8436C0.792101 11.5172 0.628906 11.1248 0.628906 10.6665V2.33317C0.628906 1.87484 0.792101 1.48248 1.11849 1.15609C1.44488 0.829698 1.83724 0.666504 2.29557 0.666504H13.9622C14.4206 0.666504 14.8129 0.829698 15.1393 1.15609C15.4657 1.48248 15.6289 1.87484 15.6289 2.33317V10.6665C15.6289 11.1248 15.4657 11.5172 15.1393 11.8436C14.8129 12.17 14.4206 12.3332 13.9622 12.3332H2.29557Z" fill="black"/>
</svg>
