<svg width="16" height="15" viewBox="0 0 16 15" fill="none" xmlns="http://www.w3.org/2000/svg">
<path d="M2 14.5273C1.5875 14.5273 1.23438 14.3805 0.940625 14.0867C0.646875 13.793 0.5 13.4398 0.5 13.0273V4.77734C0.5 4.36484 0.646875 4.01172 0.940625 3.71797C1.23438 3.42422 1.5875 3.27734 2 3.27734H5V1.77734C5 1.36484 5.14687 1.01172 5.44063 0.717969C5.73438 0.424219 6.0875 0.277344 6.5 0.277344H9.5C9.9125 0.277344 10.2656 0.424219 10.5594 0.717969C10.8531 1.01172 11 1.36484 11 1.77734V3.27734H14C14.4125 3.27734 14.7656 3.42422 15.0594 3.71797C15.3531 4.01172 15.5 4.36484 15.5 4.77734V13.0273C15.5 13.4398 15.3531 13.793 15.0594 14.0867C14.7656 14.3805 14.4125 14.5273 14 14.5273H2ZM2 13.0273H14V4.77734H2V13.0273ZM6.5 3.27734H9.5V1.77734H6.5V3.27734Z" fill="#1C1B1F"/>
</svg>
